<?xml version="1.0" standalone="no"?>
<!DOCTYPE svg PUBLIC "-//W3C//DTD SVG 20010904//EN"
 "http://www.w3.org/TR/2001/REC-SVG-20010904/DTD/svg10.dtd">
<svg version="1.0" xmlns="http://www.w3.org/2000/svg"
 width="225.000000pt" height="225.000000pt" viewBox="0 0 225.000000 225.000000"
 preserveAspectRatio="xMidYMid meet">

<g transform="translate(0.000000,225.000000) scale(0.100000,-0.100000)"
fill="#000000" stroke="none">
<path d="M949 2165 c-203 -38 -384 -133 -542 -284 -95 -91 -151 -167 -211
-287 -206 -412 -126 -902 202 -1230 420 -420 1104 -410 1513 23 261 277 355
686 242 1048 -109 347 -385 613 -738 712 -115 32 -346 41 -466 18z m351 -30
c403 -61 729 -358 838 -764 22 -84 25 -116 25 -251 0 -136 -3 -167 -26 -255
-123 -461 -527 -775 -997 -775 -210 0 -386 54 -570 175 -197 129 -357 354
-422 595 -20 75 -23 107 -22 265 0 166 2 187 27 270 57 186 168 366 300 487
59 55 193 143 263 174 189 84 382 110 584 79z"/>
<path d="M1105 2075 c-16 -15 -25 -36 -25 -55 0 -36 38 -80 69 -80 57 0 99 51
85 104 -14 57 -86 74 -129 31z m75 0 c16 -20 15 -95 -3 -112 -17 -18 -43 -8
-51 20 -20 74 17 136 54 92z"/>
<path d="M954 2080 c-51 -19 -65 -98 -24 -132 29 -23 82 -23 103 0 27 29 20
35 -13 10 l-30 -22 -20 20 c-21 20 -30 80 -16 102 11 18 47 14 69 -5 20 -17
20 -17 14 0 -4 10 -7 22 -7 25 0 10 -52 10 -76 2z"/>
<path d="M1287 2082 c10 -6 9 -20 -2 -62 -8 -30 -19 -56 -25 -58 -20 -7 -9
-22 16 -22 15 0 23 4 19 11 -4 6 -4 31 1 57 l7 47 12 -58 c14 -65 22 -79 35
-57 18 31 60 83 60 74 0 -26 -22 -84 -32 -84 -20 0 5 -17 36 -24 24 -6 27 -4
22 9 -8 22 13 107 31 121 11 10 9 13 -14 19 -24 6 -32 1 -64 -36 l-36 -42 -7
50 c-6 51 -17 63 -54 63 -12 0 -13 -3 -5 -8z"/>
<path d="M1526 2016 c6 -15 -26 -85 -51 -109 -14 -15 -13 -17 6 -28 18 -9 21
-9 17 3 -3 7 4 33 16 57 l22 43 -4 -61 c-2 -34 -1 -61 3 -61 4 0 28 16 51 36
24 19 44 33 44 29 0 -18 -42 -85 -50 -80 -6 4 -10 2 -10 -3 0 -8 42 -32 55
-32 3 0 5 7 5 15 0 27 44 105 59 105 13 1 12 4 -3 15 -28 21 -41 19 -81 -17
l-37 -32 3 53 c3 49 1 55 -24 67 -23 12 -26 12 -21 0z"/>
<path d="M687 1991 c-29 -17 -44 -32 -38 -36 17 -10 62 -104 56 -115 -9 -14 2
-12 38 7 21 11 27 18 17 20 -18 4 -44 42 -35 51 3 3 15 1 25 -6 25 -15 25 -11
1 28 -18 31 -18 31 -25 8 l-6 -23 -14 25 c-18 32 -11 43 26 38 22 -4 28 -1 23
9 -3 8 -5 17 -5 19 0 9 -17 2 -63 -25z"/>
<path d="M1035 1919 c-272 -42 -494 -203 -610 -444 -63 -131 -80 -206 -79
-355 1 -236 77 -413 246 -576 89 -86 183 -143 308 -186 89 -30 103 -32 235
-33 117 0 153 4 220 23 270 78 485 296 560 567 23 85 31 257 15 341 -70 378
-371 645 -752 668 -46 3 -110 1 -143 -5z m-99 -364 c9 -8 27 -15 41 -15 17 0
27 -7 30 -20 3 -12 18 -27 34 -36 16 -8 29 -20 29 -28 0 -7 11 -23 25 -36 17
-16 22 -27 15 -34 -6 -6 -5 -15 4 -25 8 -9 15 -23 17 -31 3 -20 -11 -70 -21
-70 -4 0 -12 -18 -19 -41 -7 -23 -17 -39 -24 -36 -7 2 -25 -6 -40 -19 -21 -18
-35 -22 -57 -17 -17 3 -36 1 -43 -5 -8 -7 -29 -9 -49 -6 -31 6 -37 11 -42 39
-4 18 -4 39 -1 46 3 8 -1 23 -9 34 -13 17 -18 18 -35 8 -34 -21 -46 -15 -23
10 28 29 28 53 2 67 -17 9 -28 7 -53 -9 -33 -20 -33 -20 -50 -1 -21 25 -21 29
3 60 11 14 20 32 20 41 0 8 14 28 30 44 17 16 30 34 30 41 0 42 151 74 186 39z
m560 -57 c-1 -13 -9 -26 -18 -30 -10 -4 -18 -15 -18 -24 0 -11 -5 -14 -17 -9
-10 4 -33 11 -50 17 -37 10 -39 15 -17 46 12 18 25 22 68 22 48 0 53 -2 52
-22z m-162 -53 c-10 -8 -25 -15 -31 -15 -7 0 -19 -13 -27 -29 -34 -64 23 -75
187 -37 108 26 170 3 170 -64 0 -38 -16 -56 -75 -86 -52 -27 -54 -32 -23 -94
7 -14 15 -37 19 -52 3 -16 26 -42 56 -65 43 -33 49 -43 51 -78 5 -82 4 -125
-3 -125 -5 0 -8 -6 -8 -14 0 -15 -48 -66 -62 -66 -5 0 -6 10 -2 23 l7 22 -23
-20 c-22 -19 -23 -19 -17 -1 6 14 3 17 -8 12 -33 -12 -13 21 28 47 25 16 27
23 22 50 -4 18 -14 43 -22 56 -13 20 -20 22 -59 16 -51 -7 -85 11 -124 69 -34
48 -73 69 -113 61 -18 -4 -72 -25 -122 -45 -49 -21 -110 -40 -135 -42 -40 -3
-45 -1 -42 17 2 11 11 29 20 39 14 16 14 18 2 14 -8 -2 -24 -22 -34 -44 -11
-21 -28 -45 -38 -52 -10 -7 -18 -20 -18 -28 0 -11 -6 -13 -20 -9 -16 5 -20 2
-20 -19 0 -14 -6 -29 -14 -33 -7 -4 -18 -18 -25 -30 -7 -14 -17 -20 -26 -17
-9 4 -15 0 -15 -8 0 -8 -10 -25 -21 -37 -17 -18 -23 -20 -30 -10 -6 10 -13 9
-30 -6 -12 -11 -19 -14 -15 -7 9 15 -6 16 -21 1 -17 -17 -37 -1 -22 17 14 17
-2 19 -20 2 -11 -11 -13 -10 -9 2 2 8 22 24 45 35 59 29 70 41 89 98 9 29 28
68 41 87 13 19 28 53 34 75 13 49 39 81 50 63 6 -10 15 -9 41 3 25 12 37 14
50 5 14 -8 23 -7 40 3 13 8 36 21 52 29 15 8 34 30 42 48 15 36 17 37 76 34
21 -1 64 8 95 20 66 25 119 21 172 -11 31 -19 35 -19 87 -4 41 12 57 22 69 45
14 28 14 31 -5 50 -24 24 -84 27 -156 6 -130 -38 -203 -25 -204 36 0 29 59 76
99 77 10 1 9 -3 -5 -14z m-662 -305 c35 -7 58 -6 95 5 26 8 49 15 51 15 1 0 2
-9 2 -20 0 -11 5 -20 11 -20 8 0 8 -4 2 -12 -6 -7 -13 -25 -17 -39 -6 -25 -36
-49 -36 -29 0 6 -9 10 -19 10 -11 0 -23 5 -26 10 -4 6 -10 8 -15 5 -5 -3 -21
2 -35 11 -20 13 -31 14 -56 5 -45 -16 -62 -14 -55 5 4 12 2 15 -9 10 -18 -7
-20 5 -2 23 10 11 8 13 -11 8 -13 -3 -20 -1 -16 5 9 15 47 27 69 22 11 -2 41
-8 67 -14z m677 -126 c40 -33 39 -49 -1 -60 -23 -7 -34 -17 -36 -32 -2 -12 -7
-22 -12 -22 -5 0 -7 -7 -4 -15 4 -8 1 -15 -6 -15 -6 0 -8 -4 -5 -10 3 -5 1
-10 -4 -10 -6 0 -11 -7 -11 -15 0 -8 -18 -26 -41 -40 -57 -37 -71 -41 -63 -20
6 15 4 16 -15 5 -26 -13 -43 -4 -21 11 12 8 10 10 -7 6 -42 -9 -23 11 20 21
52 14 67 37 65 108 -1 34 4 61 15 77 14 22 29 28 84 36 6 0 25 -11 42 -25z"/>
<path d="M833 1550 c-13 -5 -23 -15 -23 -22 0 -9 3 -9 12 0 16 16 45 15 51 0
2 -7 8 -10 12 -6 11 10 -2 38 -17 37 -7 0 -23 -4 -35 -9z"/>
<path d="M910 1478 c0 -7 4 -20 10 -28 6 -9 5 -17 -1 -21 -7 -4 -6 -14 3 -28
8 -14 9 -24 3 -29 -12 -9 -39 -82 -32 -88 3 -3 13 8 23 25 10 17 22 31 26 31
13 0 6 93 -9 123 -15 29 -23 35 -23 15z"/>
<path d="M820 1460 c0 -13 -5 -18 -15 -14 -12 5 -15 -3 -15 -35 0 -23 5 -41
10 -41 6 0 10 11 10 24 0 13 4 26 8 28 13 5 24 58 12 58 -5 0 -10 -9 -10 -20z"/>
<path d="M715 1446 c-14 -10 -15 -15 -6 -21 8 -4 19 -1 28 8 20 19 1 30 -22
13z"/>
<path d="M524 1889 c-43 -28 -47 -33 -29 -39 21 -8 75 -80 75 -100 0 -14 27 0
63 34 35 33 36 78 2 111 -32 33 -51 31 -111 -6z m77 -19 c22 -21 29 -38 27
-57 -5 -41 -20 -37 -56 17 -48 69 -27 97 29 40z"/>
<path d="M1712 1830 c-68 -36 -71 -40 -51 -50 15 -8 19 -9 15 -1 -11 16 22 25
39 11 20 -16 19 -38 -1 -42 -12 -2 -9 -8 13 -24 l28 -21 21 83 c12 46 19 84
15 84 -3 -1 -39 -18 -79 -40z m31 -21 c-4 -13 -9 -17 -15 -11 -11 11 -3 32 12
32 4 0 6 -9 3 -21z"/>
<path d="M405 1779 c-22 -23 -35 -39 -29 -36 11 6 89 -68 95 -91 3 -8 15 -2
34 19 17 18 24 29 17 25 -8 -5 -21 -1 -32 9 -17 16 -17 18 -2 46 13 22 14 33
6 46 -20 32 -47 26 -89 -18z m59 -11 c5 -9 7 -20 3 -24 -8 -8 -47 24 -47 38 0
15 32 5 44 -14z"/>
<path d="M1873 1785 c7 -14 1 -22 -46 -63 -21 -18 -42 -30 -48 -27 -15 10 -10
-12 6 -25 11 -9 15 -9 15 -1 0 12 49 60 61 61 4 0 1 -30 -6 -67 -7 -38 -11
-70 -9 -72 1 -2 27 17 56 41 30 26 59 43 68 40 11 -3 9 1 -5 17 -18 21 -20 21
-26 4 -4 -10 -17 -27 -30 -38 -18 -16 -21 -17 -17 -4 4 9 9 36 13 60 6 38 3
47 -16 64 -12 11 -20 15 -16 10z"/>
<path d="M1987 1627 c-7 -18 -77 -57 -102 -57 -20 0 -19 -4 10 -51 42 -65 103
-72 140 -15 19 28 10 71 -24 115 -15 20 -19 21 -24 8z m38 -57 c16 -27 -50
-76 -91 -68 -34 6 -25 27 23 52 55 29 60 30 68 16z"/>
<path d="M250 1580 c-12 -22 -5 -60 10 -60 5 0 7 7 4 15 -8 20 22 31 41 15 9
-7 24 -31 34 -54 l18 -41 21 42 c27 52 27 50 1 64 -15 7 -19 8 -15 0 4 -6 2
-20 -5 -32 -11 -21 -12 -21 -25 16 -19 57 -63 75 -84 35z"/>
<path d="M210 1313 c0 -26 -4 -33 -19 -33 -28 0 -37 -20 -12 -27 16 -4 21 -13
21 -36 l0 -30 23 21 c17 16 26 18 40 10 24 -13 34 -3 17 17 -11 13 -9 20 11
42 l24 26 -30 -6 c-24 -4 -34 0 -52 21 l-22 27 -1 -32z"/>
<path d="M2033 1308 c-9 -21 -17 -25 -40 -20 -28 5 -28 5 -10 -16 15 -16 16
-25 8 -41 -16 -29 -14 -33 10 -21 16 9 24 8 38 -4 24 -22 29 -20 25 10 -2 19
4 28 24 36 l27 12 -27 4 c-21 2 -30 11 -36 34 l-8 31 -11 -25z"/>
<path d="M237 1056 c-8 -8 -20 -28 -27 -45 -7 -17 -19 -31 -26 -31 -8 0 -14 2
-14 4 0 2 -3 11 -6 19 -3 8 5 24 17 36 l23 21 -27 0 c-25 0 -27 -3 -27 -40 0
-31 5 -43 25 -56 33 -21 50 -13 75 36 22 43 37 50 47 23 4 -10 -2 -23 -16 -35
l-23 -18 26 0 c23 0 26 4 26 33 0 33 -24 67 -48 67 -6 0 -17 -6 -25 -14z"/>
<path d="M1997 1022 c-10 -10 -21 -40 -26 -66 -7 -41 -7 -46 7 -41 22 8 122
-14 122 -28 0 -7 3 -8 10 -1 5 5 11 33 12 61 2 39 -2 57 -16 72 -25 27 -86 28
-109 3z m94 -32 c10 -6 19 -20 19 -31 0 -19 -4 -20 -42 -14 -24 3 -51 9 -60
11 -18 5 -24 25 -11 37 10 11 72 8 94 -3z"/>
<path d="M276 941 c-3 -5 3 -11 14 -14 11 -3 20 -10 20 -15 0 -13 -107 -45
-120 -37 -13 8 -13 -7 1 -42 9 -24 12 -26 20 -12 9 18 105 46 116 35 4 -4 1
-12 -5 -18 -18 -18 -14 -27 9 -21 13 4 19 12 16 22 -3 9 -11 37 -18 64 -9 33
-18 47 -30 47 -10 0 -20 -4 -23 -9z"/>
<path d="M1949 879 c-9 -18 -9 -21 2 -17 8 3 30 0 49 -7 l35 -12 -53 -17 c-29
-10 -57 -26 -62 -36 -14 -26 -13 -33 4 -27 18 7 105 -25 116 -43 6 -10 11 -8
19 8 15 28 14 30 -11 25 -13 -2 -38 2 -57 10 l-35 15 72 23 c40 13 72 26 72
29 0 3 -25 14 -56 25 -31 11 -63 25 -70 32 -11 11 -15 10 -25 -8z"/>
<path d="M349 803 c-6 -16 -108 -65 -120 -57 -9 5 1 -23 32 -89 8 -17 18 -26
27 -22 7 3 19 5 25 5 7 0 -3 9 -20 20 -39 24 -42 43 -8 58 20 9 25 9 25 -1 0
-7 -5 -18 -12 -25 -17 -17 -2 -15 35 5 30 16 30 18 10 21 -30 4 -29 16 2 30
22 10 25 9 31 -13 4 -15 1 -32 -6 -40 -15 -18 0 -20 22 -2 15 11 14 17 -11 66
-16 30 -30 50 -32 44z"/>
<path d="M1866 679 c4 -8 27 -40 50 -72 41 -55 43 -57 55 -36 10 19 9 21 -5
16 -21 -8 -29 8 -16 33 12 22 40 27 40 8 0 -12 39 30 40 42 0 3 -10 5 -22 6
-13 0 -52 4 -87 9 -54 7 -63 6 -55 -6z m74 -44 c0 -8 -4 -15 -9 -15 -5 0 -14
7 -21 15 -10 13 -9 15 9 15 12 0 21 -6 21 -15z"/>
<path d="M395 614 c-27 -7 -60 -14 -72 -14 -27 0 -29 -12 -6 -31 9 -8 14 -9
10 -3 -12 20 24 26 39 7 16 -22 12 -38 -9 -37 -18 2 -15 -9 11 -38 13 -16 18
-12 53 47 38 62 47 86 32 84 -5 0 -30 -7 -58 -15z m5 -29 c-12 -15 -30 -12
-30 6 0 5 10 9 21 9 18 0 19 -2 9 -15z"/>
<path d="M1799 592 c-60 -64 -63 -69 -41 -81 17 -9 18 -7 14 14 -2 14 0 25 6
25 17 0 83 -61 91 -83 7 -18 9 -17 30 12 14 19 18 31 10 31 -6 0 -32 16 -56
36 -43 35 -49 60 -12 51 22 -6 25 6 6 22 -10 8 -22 2 -48 -27z"/>
<path d="M464 493 l-51 -52 33 -32 c43 -42 87 -44 121 -5 32 38 29 61 -14 104
l-38 38 -51 -53z m96 -13 c0 -26 -48 -80 -70 -80 -36 0 -32 22 10 65 44 45 60
49 60 15z"/>
<path d="M1698 492 c-51 -50 -28 -89 47 -79 48 7 65 -4 44 -29 -9 -11 -22 -14
-43 -10 -28 6 -29 6 -12 -13 17 -19 20 -19 43 -4 34 22 46 49 33 72 -13 26
-39 33 -78 22 -27 -8 -34 -7 -39 6 -8 20 16 34 47 26 25 -6 25 -6 6 16 -11 11
-20 21 -20 20 -1 0 -13 -12 -28 -27z"/>
<path d="M622 436 c4 -21 -53 -105 -72 -106 -10 -1 -4 -10 15 -25 30 -25 59
-35 38 -14 -9 9 -8 18 4 35 18 28 37 22 28 -9 -6 -18 -2 -17 19 8 28 33 35 55
11 35 -25 -21 -40 3 -15 25 16 15 22 16 36 5 8 -8 13 -22 11 -32 -6 -22 9 -24
17 -2 8 21 3 29 -50 65 -32 22 -44 26 -42 15z"/>
<path d="M1490 350 c-30 -16 -49 -29 -42 -30 16 0 66 -106 57 -120 -3 -5 -4
-10 0 -10 5 0 105 48 112 54 1 1 0 12 -4 24 -5 22 -6 22 -24 -7 -23 -38 -42
-39 -57 -6 -9 20 -9 25 1 25 7 0 18 -5 25 -12 16 -16 15 1 0 35 -14 30 -31 36
-26 11 4 -25 -19 -28 -27 -5 -9 31 3 44 36 37 27 -5 29 -4 19 14 -6 11 -12 20
-13 20 -1 -1 -27 -14 -57 -30z"/>
<path d="M749 324 c-13 -15 -41 -39 -62 -54 -29 -22 -34 -29 -21 -34 25 -10
34 -7 28 9 -6 16 12 20 40 9 21 -8 20 -32 -1 -36 -14 -3 -11 -8 14 -21 18 -9
33 -17 35 -17 2 0 4 38 6 85 2 47 -1 85 -6 85 -5 0 -19 -12 -33 -26z m1 -44
c0 -13 -5 -18 -15 -14 -12 5 -13 10 -4 20 15 19 19 18 19 -6z"/>
<path d="M871 293 c-29 -20 -26 -42 9 -78 21 -22 27 -34 20 -45 -13 -20 -42
-2 -51 31 l-6 24 -12 -28 c-14 -35 -14 -33 2 -35 6 -1 27 -5 45 -8 65 -13 84
43 31 90 -21 19 -28 31 -21 38 15 15 43 2 49 -23 4 -16 8 -17 14 -7 16 24 9
34 -25 45 -27 8 -39 8 -55 -4z"/>
<path d="M1398 303 c14 -5 16 -41 3 -61 -6 -10 -12 -7 -25 13 -9 14 -14 31
-10 37 5 8 2 9 -10 5 -10 -4 -27 -7 -39 -7 -20 -1 -21 -2 -4 -14 17 -13 25
-76 10 -76 -12 0 -44 61 -37 71 5 8 -43 2 -54 -6 -2 -2 18 -33 44 -70 27 -38
49 -64 51 -59 2 6 7 30 11 55 l8 44 28 -43 c15 -24 29 -42 32 -40 2 3 7 39 12
81 8 74 7 77 -12 76 -12 0 -15 -3 -8 -6z"/>
<path d="M980 271 c0 -5 -3 -18 -7 -28 -6 -17 -5 -17 15 1 12 11 25 16 28 13
10 -10 -6 -117 -17 -117 -6 0 -7 -4 -4 -10 3 -5 23 -10 43 -10 23 0 32 3 24 8
-9 6 -11 24 -6 65 7 59 17 69 40 40 12 -17 13 -16 14 4 0 24 -9 28 -82 38 -29
4 -48 2 -48 -4z"/>
</g>
</svg>
